<svg width="6" height="10" viewBox="0 0 6 10" fill="none" xmlns="http://www.w3.org/2000/svg">
<path d="M5.59899 0.397697C5.35298 0.132591 5.05418 0 4.7026 0H2.17164C1.82006 0 1.52128 0.132591 1.27526 0.397697C1.02925 0.662878 0.90625 0.984802 0.90625 1.36367V4.0909C0.90625 4.46974 1.02925 4.79164 1.27526 5.05675C1.52128 5.32183 1.82009 5.45447 2.17164 5.45447H3.64806C3.82377 5.45447 3.97332 5.52079 4.09634 5.65333C4.21925 5.78587 4.28089 5.94687 4.28089 6.13635V6.3635C4.28089 6.86543 4.11608 7.2938 3.78648 7.64898C3.45695 8.00399 3.05941 8.18156 2.59351 8.18156H2.17164C2.05741 8.18156 1.95849 8.22666 1.87505 8.31656C1.79155 8.40647 1.74974 8.51303 1.74974 8.63615V9.54535C1.74974 9.66826 1.79155 9.77503 1.87505 9.86496C1.95846 9.95484 2.05739 9.99996 2.17164 9.99996H2.59351C3.05048 9.99996 3.48657 9.90394 3.90189 9.71224C4.31707 9.52052 4.67622 9.26121 4.97945 8.93449C5.28266 8.60774 5.5234 8.22066 5.70123 7.77329C5.87913 7.32594 5.96818 6.85593 5.96818 6.36353V1.36357C5.96811 0.984703 5.84517 0.662779 5.59899 0.397697Z" fill="#F6762C"/>
</svg>
